# xmcd
#
# Track frame offsets:
#	150
#	21610
#	45833
#	68981
#	95715
#	151281
#	187460
#
# Disc length: 3226
#
# Revision: 0
# Processed by: cddbd v1.5.2PL0 Copyright (c) Steve Scherf et al.
# Submitted via: Broken X Disk Manager 4.10.2355
#
DISCID=610c9807
DTITLE=Asia - Omega Tour Live CD2
DYEAR=2010
DGENRE=Rock
TTITLE0=Finger On The Trigger
TTITLE1=Time Again
TTITLE2=Extraordinary Life
TTITLE3=End Of The World
TTITLE4=Heat Goes On
TTITLE5=Sole Survivor
TTITLE6=Go/Heat
EXTD=
EXTT0=
EXTT1=
EXTT2=
EXTT3=
EXTT4=
EXTT5=
EXTT6=
PLAYORDER=
